<?xml version="1.0" encoding="UTF-8" standalone="no"?>
<!DOCTYPE svg  PUBLIC '-//W3C//DTD SVG 1.0//EN'  'http://www.w3.org/TR/2001/REC-SVG-20010904/DTD/svg10.dtd'>
<svg style="shape-rendering:geometricPrecision;text-rendering:geometricPrecision;image-rendering:optimizeQuality" xmlns="http://www.w3.org/2000/svg" fill-rule="evenodd" xml:space="preserve" height="83.808mm" width="36.623mm" version="1.0" clip-rule="evenodd" xmlns:xlink="http://www.w3.org/1999/xlink" viewBox="0 0 2302 5268">
 <defs>
  <style type="text/css">
   <![CDATA[
    .fil1 {fill:none}
    .fil0 {fill:#2B2A29}
   ]]>
  </style>
 </defs>
 <g id="Warstwa_x0020_1">
  <g id="_1191289248">
    <path class="fil0" d="m1349 607c-79-45-154-71-223-81-29 2-59 6-88 10-151 23-178 54-294 143-11 10-25 15-39 16-87 101-151 240-188 393-230 935 1088 1619 1557 538 274-630-100-1023-631-1095 8 20 7 43-7 62-20 28-59 35-87 14zm-221-208c785-69 1421 449 1062 1277-555 1278-2199 389-1751-759 141-361 381-561 689-518z"/>
   <path class="fil1" d="m1385 556c-660-475-1300 727-754 1322 1251 1362 2573-1497 537-1415-206 8-315 35-466 169"/>
    <path class="fil0" d="m784 1450c31 384 616 817 728-290 2-35 32-61 67-59 34 2 61 31 59 66l-22 209c-142 912-907 692-958 70 1-34 30-62 65-61 34 1 62 30 61 65z"/>
   <path class="fil1" d="m721 1448c-12 457 788 900 854-285"/>
    <path class="fil0" d="m772 989c40-210 222-329 240 80 0 34-28 62-63 62s-63-28-63-62c0-9 0-23-1-39-12 17-32 27-54 25-35-2-61-32-59-66z"/>
   <path class="fil1" d="m835 993c4-67 114-290 114 76"/>
    <path class="fil0" d="m1119 1006c95-157 310-217 329-13 0 34-28 62-63 62-34 0-63-28-63-62v-3c-35 2-71 38-87 65-14 32-51 47-83 34-32-14-47-51-33-83z"/>
   <path class="fil1" d="m1177 1031c36-87 208-164 208-38"/>
    <path class="fil0" d="m1117 463c-79-186-270-147-412-49-26 23-66 20-89-7-22-26-19-66 7-88 224-155 494-174 613 103 11 33-6 69-39 80s-69-6-80-39z"/>
   <path class="fil1" d="m1177 442c-79-229-365-201-513-76"/>
    <path class="fil0" d="m1078 476c-51-272 334-309 516-324 35 0 63 28 63 63 0 34-28 63-63 63-73 6-420 30-394 168 8 34-13 68-46 76-34 9-68-12-76-46z"/>
   <path class="fil1" d="m1139 461c-48-194 327-246 455-246"/>
    <path class="fil0" d="m1134 438c-54-240-61-301 143-429 30-18 69-8 86 22 18 30 8 68-22 86-146 92-128 101-84 291 8 34-13 68-47 76-33 9-67-12-76-46z"/>
   <path class="fil1" d="m1196 423c-55-225-46-266 113-360"/>
    <path class="fil0" d="m1350 2245c102 586 10 1204-188 1764-31 88-80 248-189 272-35 3-65-23-68-58-2-30 17-57 46-65 23-24 48-80 57-101 227-510 317-1226 222-1774-10-34 9-69 42-79s68 8 78 41z"/>
   <path class="fil1" d="m1290 2264c176 564-179 1943-322 1954"/>
    <path class="fil0" d="m894 2801c-9 153-22 444 9 512 131 26 577 114 728 103 20-126 88-544 85-598-53-1-679-2-762-10l-60-7zm-125-15l-38-4c-34-5-58-37-53-72 5-34 37-58 71-53l57 7c8-5 18-8 29-8 16 0 30 6 41 16 145 16 273 27 431 28 325 2 576-120 527 229-78 545 38 652-411 600-758-89-687-70-654-743z"/>
   <path class="fil1" d="m835 2719c0 153-52 613 38 650 20 9 805 166 814 90 131-1065 314-560-947-740"/>
    <path class="fil0" d="m943 2713c4-35 40-362 165-219 177 202 13 1290-215 937l-21-42c-14-32 1-69 33-82 32-14 68 1 82 32 57-113 72-378 58-571-12 10-28 16-45 14-35-3-60-34-57-69z"/>
   <path class="fil1" d="m1006 2719c52-543 155 231 90 451-8 27-74 408-166 194"/>
    <path class="fil0" d="m1544 2758c-38 197-33 478-10 583 3 13 3 17 5 21 23 8 40 29 42 54 3 35-23 65-58 68-213-5-111-644-99-731 57-446 416-377 223 0-18 29-57 38-86 20-7-4-12-9-17-15z"/>
   <path class="fil1" d="m1594 2719c94-151 66-349-88-93-12 20-106 805 12 795"/>
    <path class="fil0" d="m1271 2877c-791 14-418 91-836 507 70 110 154 298 185 361 21 28 14 68-14 88s-67 14-88-14c-43-84-87-183-134-273-1 6-2 10-3 13 0 5-9 426-148 302-17-15-31-148-25-282-23 18-46 35-71 54-159 114-248-74 130-311 18-24 40-36 68-31 5-1 10-1 14-2 401-407 71-522 922-538 35 0 63 28 63 63s-28 63-63 63z"/>
   <path class="fil1" d="m1271 2814c-870 0-351 85-1042 664-484 407 232-328 108-57-4 8-111 896-35-19 17-205 219 313 267 380"/>
    <path class="fil0" d="m1347 2754c378 70 737-62 668 542-5 48-14 95-23 141 37 3 80 5 179-54 28-16 24-13 57-24 35-5 67 18 73 52s-17 66-51 72c-6 3-6 3-14 8-181 108-178 54-251 66 67 53-1 24 141 77 131 49 68 136 14 137-43 2-77-2-105-10 5 13 10 25 16 36 11 10 25 18 40 27 97 53-12 277-143 55-82-70-102-154-99-260-3-10-5-19-6-28-30-41-33-83 19-119l1-14c82-680-1-480-553-584-34-10-52-45-42-79 11-33 46-51 79-41z"/>
   <path class="fil1" d="m1328 2814c265 83 696-120 625 475-28 238-124 494 114 593 0 208-302-629-100-231 16 31 335 102 62 17-37-12-312-187 41-171 69 3 124-68 169-76"/>
    <path class="fil0" d="m1311 3502c-163 404-427 1182-835 1383-33 11-69-6-80-39s6-69 39-80c335-166 622-970 759-1311 13-33 50-48 82-35s48 50 35 82z"/>
   <path class="fil1" d="m1252 3478c-126 310-468 1234-796 1347"/>
    <path class="fil0" d="m1274 3537c-154 477-325 915-90 1384 50 99 55 122 55 232-3 35-33 61-68 58-34-3-60-34-57-68 0-79-6-93-42-164-256-511-84-966 83-1483 11-33 47-50 80-39s50 47 39 80z"/>
   <path class="fil1" d="m1214 3516c-469 1368-10 1311-37 1632"/>
    <path class="fil0" d="m502 4974c-3 44-25 66-86 29-19-11-38-43-52-73-101-58-169-153-21-167 6-13 16-28 32-47 73 11 199 82 205 173 3 63-31 86-78 85z"/>
   <path class="fil1" d="m418 4825c-326-34 363 234-21-50-5-4 114 310 14 107l-12-38"/>
    <path class="fil0" d="m1019 5160c3-25 21-47 47-54 76-15 295-70 368 7 150 156-371 155-371 155-35 0-63-28-63-63 0-18 7-34 19-45z"/>
   <path class="fil1" d="m1063 5205c508 0 349-124 19-38"/>
  </g>
 </g>
</svg>
